Pearl Harbor follows the story of two best friends, Rafe and Danny, and their love lives as they go off to join the war. 


Director: Michael Bay
Writer: Randall Wallace
Stars:Ben Affleck, Kate Beckinsale and Josh Hartnett 

Media info:

General
Complete name                    : E:\\torrent2\\Pearl.Harbor.Director\'s.Cut.2001 .Blu-ray rip. MKV .x264. 720p. AC3 5.1.ACB-Team\\Pearl.Harbor.Director\'s.Cut.2001 .Blu-ray rip. MKV .x264. 720p. AC3 5.1.ACB-Team.mkv
Format                           : Matroska
File size                        : 5.85 GiB
Duration                         : 3h 3mn
Overall bit rate                 : 4 575 Kbps
Movie name                       : movie
Encoded date                     : UTC 2011-03-05 10:41:07
Writing application              : mkvmerge v3.2.0 (\'Beginnings\') built on Feb 12 2010 16:46:17
Writing library                  : libebml v0.7.9 + libmatroska v0.8.1

Video
ID                               : 1
Format                           : AVC
Format/Info                      : Advanced Video Codec
Format profile                   : High@L4.1
Format settings, CABAC           : Yes
Format settings, ReFrames        : 4 frames
Muxing mode                      : Container profile=Unknown@4.1
Codec ID                         : V_MPEG4/ISO/AVC
Duration                         : 3h 3mn
Bit rate                         : 4 036 Kbps
Width                            : 1 280 pixels
Height                           : 544 pixels
Display aspect ratio             : 2.35:1
Frame rate                       : 23.976 fps
Color space                      : YUV
Chroma subsampling               : 4:2:0
Bit depth                        : 8 bits
Scan type                        : Progressive
Bits/(Pixel*Frame)               : 0.242
Stream size                      : 5.16 GiB (88%)
Writing library                  : x264 core 107 r1745 4785e8e
Encoding settings                : cabac=1 / ref=4 / deblock=1:-1:-1 / analyse=0x3:0x113 / me=umh / subme=8 / psy=1 / psy_rd=1.00:0.15 / mixed_ref=1 / me_range=16 / chroma_me=1 / trellis=1 / 8x8dct=1 / cqm=0 / deadzone=21,11 / fast_pskip=0 / chroma_qp_offset=-3 / threads=3 / sliced_threads=0 / nr=0 / decimate=1 / interlaced=0 / constrained_intra=0 / bframes=3 / b_pyramid=2 / b_adapt=2 / b_bias=0 / direct=3 / weightb=1 / open_gop=0 / weightp=2 / keyint=250 / keyint_min=23 / scenecut=40 / intra_refresh=0 / rc_lookahead=50 / rc=crf / mbtree=1 / crf=18.0 / qcomp=0.60 / qpmin=10 / qpmax=51 / qpstep=4 / ip_ratio=1.40 / aq=1:1.00
Language                         : English

Audio
ID                               : 2
Format                           : AC-3
Format/Info                      : Audio Coding 3
Mode extension                   : CM (complete main)
Codec ID                         : A_AC3
Duration                         : 3h 3mn
Bit rate mode                    : Constant
Bit rate                         : 448 Kbps
Channel(s)                       : 6 channels
Channel positions                : Front: L C R, Side: L R, LFE
Sampling rate                    : 48.0 KHz
Bit depth                        : 16 bits
Stream size                      : 587 MiB (10%)
Language                         : English

Text
ID                               : 3
Format                           : UTF-8
Codec ID                         : S_TEXT/UTF8
Codec ID/Info                    : UTF-8 Plain Text
Language                         : Dutch

Menu
00:00:00.000                     : en:00:00:00.000
00:05:00.000                     : en:00:05:00.000
00:10:00.000                     : en:00:10:00.000
00:15:00.000                     : en:00:15:00.000
00:20:00.000                     : en:00:20:00.000
00:25:00.000                     : en:00:25:00.000
00:30:00.000                     : en:00:30:00.000
00:35:00.000                     : en:00:35:00.000
00:40:00.000                     : en:00:40:00.000
00:45:00.000                     : en:00:45:00.000
00:50:00.000                     : en:00:50:00.000
00:55:00.000                     : en:00:55:00.000
01:00:00.000                     : en:01:00:00.000
01:05:00.000                     : en:01:05:00.000
01:10:00.000                     : en:01:10:00.000
01:15:00.000                     : en:01:15:00.000
01:20:00.000                     : en:01:20:00.000
01:25:00.000                     : en:01:25:00.000
01:30:00.000                     : en:01:30:00.000
01:35:00.000                     : en:01:35:00.000
01:40:00.000                     : en:01:40:00.000
01:45:00.000                     : en:01:45:00.000
01:50:00.000                     : en:01:50:00.000
01:55:00.000                     : en:01:55:00.000
02:00:00.000                     : en:02:00:00.000
02:05:00.000                     : en:02:05:00.000
02:10:00.000                     : en:02:10:00.000
02:15:00.000                     : en:02:15:00.000
02:20:00.000                     : en:02:20:00.000
02:25:00.000                     : en:02:25:00.000
02:30:00.000                     : en:02:30:00.000
02:35:00.000                     : en:02:35:00.000
02:40:00.000                     : en:02:40:00.000
02:45:00.000                     : en:02:45:00.000
02:50:00.000                     : en:02:50:00.000
02:55:00.000                     : en:02:55:00.000
03:00:00.000                     : en:03:00:00.000

